<?xml version="1.0" encoding="UTF-8"?>
<svg id="Layer_2" data-name="Layer 2" xmlns="http://www.w3.org/2000/svg" xmlns:xlink="http://www.w3.org/1999/xlink" viewBox="0 0 775.12 702.91">
  <defs>
    <style>
      .cls-1, .cls-2, .cls-3, .cls-4, .cls-5, .cls-6, .cls-7, .cls-8, .cls-9, .cls-10, .cls-11, .cls-12, .cls-13, .cls-14, .cls-15, .cls-16, .cls-17 {
        fill: none;
      }

      .cls-2, .cls-5, .cls-18 {
        stroke-miterlimit: 8.75;
      }

      .cls-2, .cls-18 {
        stroke: #444;
        stroke-width: .5px;
      }

      .cls-19 {
        fill: #394249;
      }

      .cls-19, .cls-20, .cls-21, .cls-22, .cls-23, .cls-24 {
        fill-rule: evenodd;
      }

      .cls-3 {
        stroke-miterlimit: 5.63;
        stroke-width: 3px;
      }

      .cls-3, .cls-4, .cls-6, .cls-7, .cls-8, .cls-12, .cls-15, .cls-16, .cls-17 {
        stroke: #7c7b7b;
      }

      .cls-20, .cls-25 {
        fill: #e19a06;
      }

      .cls-4 {
        stroke-miterlimit: 4.13;
        stroke-width: 3px;
      }

      .cls-26 {
        fill: #fff4db;
      }

      .cls-21 {
        fill: #fde6db;
      }

      .cls-22, .cls-27 {
        fill: #f69d7d;
      }

      .cls-5 {
        stroke: #fbc0a4;
        stroke-width: 1px;
      }

      .cls-23 {
        fill: #bf8305;
      }

      .cls-28 {
        fill: #2d2525;
      }

      .cls-6 {
        stroke-miterlimit: 1.16;
        stroke-width: 2px;
      }

      .cls-7 {
        stroke-miterlimit: 1.55;
        stroke-width: 2px;
      }

      .cls-8 {
        stroke-width: 2px;
      }

      .cls-8, .cls-15 {
        stroke-miterlimit: 10;
      }

      .cls-29 {
        fill: #e5e5e5;
      }

      .cls-18 {
        fill: #d8d8d8;
      }

      .cls-30 {
        fill: #6b7277;
      }

      .cls-31 {
        fill: #1d2227;
      }

      .cls-32 {
        fill: #fff;
      }

      .cls-33 {
        fill: #fbdb98;
      }

      .cls-34, .cls-24 {
        fill: #fbc0a4;
      }

      .cls-9 {
        stroke-width: 2.49px;
      }

      .cls-9, .cls-10, .cls-11 {
        stroke: #e19a06;
      }

      .cls-9, .cls-10, .cls-11, .cls-13, .cls-14 {
        stroke-linejoin: round;
      }

      .cls-10 {
        stroke-width: 2.47px;
      }

      .cls-11, .cls-13 {
        stroke-width: 2.48px;
      }

      .cls-12 {
        stroke-miterlimit: 11.41;
        stroke-width: 3px;
      }

      .cls-13, .cls-14 {
        stroke: #9f9f9f;
      }

      .cls-14 {
        stroke-width: 2.48px;
      }

      .cls-35 {
        fill: #262423;
      }

      .cls-36 {
        fill: #434d56;
      }

      .cls-37 {
        opacity: .8;
      }

      .cls-38 {
        opacity: .6;
      }

      .cls-39 {
        opacity: .2;
      }

      .cls-40 {
        opacity: .3;
      }

      .cls-41 {
        opacity: .1;
      }

      .cls-42 {
        opacity: .15;
      }

      .cls-43 {
        opacity: .08;
      }

      .cls-44 {
        opacity: .03;
      }

      .cls-15 {
        stroke-width: 2px;
      }

      .cls-45 {
        fill: #3e3533;
      }

      .cls-16 {
        stroke-miterlimit: 3.73;
        stroke-width: 2px;
      }

      .cls-17 {
        stroke-miterlimit: 2.83;
        stroke-width: 2px;
      }

      .cls-46 {
        clip-path: url(#clippath);
      }
    </style>
    <clipPath id="clippath">
      <rect class="cls-1" x="74.94" y="209.44" width="625.24" height="490.77"/>
    </clipPath>
  </defs>
  <g id="Layer_1-2" data-name="Layer 1">
    <g>
      <path class="cls-26" d="M89.53,702.12h618.27c9.89-11.82,68.99-184.9,21.45-297.24-40.82-96.46-47.48-5.21-110.89-71.27-46.45-48.39,40.23-124.62-17.62-195.91C508.39,23.88,274.55-72.18,235.41,74.65,200.92,204.05,17.44,200.49,66.69,336.31c50.85,140.19-39.4,132.22-39.1,212.81.33,87.53,27.64,146.02,61.94,153.01"/>
      <g>
        <path class="cls-9" d="M544.22,237.01c-4.32,4.09-4.51,13.07-.42,17.39,4.09,4.32,13.07,4.51,17.39.42,4.32-4.09,4.51-13.07.42-17.39-4.09-4.32-13.07-4.51-17.39-.42M540.57,224.5c1.95-1.06,4-1.84,6.11-2.33l1.5-5.88,10.03.28,1.17,5.95c2.08.61,4.09,1.5,5.97,2.67l5.22-3.09,6.9,7.29-3.37,5.04c1.06,1.95,1.84,4,2.33,6.11l5.88,1.5-.28,10.03-5.95,1.18c-.61,2.08-1.5,4.09-2.67,5.97l3.09,5.22-7.29,6.9-5.04-3.37c-1.95,1.06-4,1.84-6.11,2.33l-1.5,5.88-10.03-.28-1.17-5.95c-2.08-.61-4.09-1.5-5.97-2.67l-5.22,3.09-6.9-7.29,3.38-5.04c-1.06-1.95-1.84-4-2.33-6.11l-5.88-1.5.28-10.03,5.95-1.18c.61-2.08,1.5-4.09,2.67-5.97l-3.09-5.22,7.29-6.9,5.04,3.38Z"/>
        <path class="cls-13" d="M110.38,643.58c-5.18,4.9-5.41,15.69-.51,20.87,4.9,5.18,15.69,5.41,20.87.51,5.18-4.9,5.41-15.69.51-20.87-4.9-5.18-15.69-5.41-20.87-.51M106,628.57c2.34-1.27,4.81-2.2,7.34-2.8l1.8-7.05,12.04.33,1.41,7.14c2.49.73,4.91,1.8,7.17,3.2l6.26-3.71,8.28,8.75-4.05,6.04c1.27,2.34,2.2,4.81,2.8,7.34l7.05,1.8-.33,12.04-7.14,1.41c-.73,2.49-1.8,4.9-3.2,7.17l3.71,6.26-8.75,8.28-6.04-4.05c-2.34,1.27-4.81,2.2-7.34,2.8l-1.8,7.05-12.04-.33-1.41-7.14c-2.49-.74-4.91-1.8-7.17-3.2l-6.26,3.71-8.28-8.75,4.05-6.04c-1.27-2.34-2.2-4.81-2.8-7.34l-7.05-1.8.33-12.04,7.14-1.41c.73-2.49,1.8-4.9,3.2-7.17l-3.71-6.26,8.75-8.28,6.05,4.05Z"/>
        <path class="cls-10" d="M185.17,456.51c-3.45,3.26-3.6,10.43-.34,13.88,3.26,3.45,10.43,3.6,13.88.34,3.45-3.26,3.6-10.43.34-13.88-3.26-3.45-10.43-3.6-13.88-.34M182.26,446.53c1.55-.85,3.2-1.47,4.88-1.86l1.2-4.69,8.01.22.94,4.75c1.66.49,3.26,1.2,4.77,2.13l4.16-2.47,5.5,5.82-2.69,4.02c.85,1.55,1.47,3.2,1.86,4.88l4.69,1.2-.22,8.01-4.75.94c-.49,1.66-1.2,3.26-2.13,4.77l2.47,4.16-5.82,5.5-4.02-2.69c-1.55.84-3.2,1.47-4.88,1.86l-1.2,4.69-8.01-.22-.94-4.75c-1.66-.49-3.26-1.2-4.77-2.13l-4.16,2.47-5.5-5.82,2.69-4.02c-.85-1.55-1.47-3.2-1.86-4.88l-4.69-1.2.22-8.01,4.75-.94c.49-1.66,1.2-3.26,2.13-4.77l-2.47-4.16,5.82-5.5,4.02,2.69Z"/>
        <path class="cls-14" d="M285.59,147.27c-4.03,3.81-4.2,12.18-.39,16.21,3.81,4.03,12.18,4.2,16.21.39,4.03-3.81,4.2-12.18.39-16.21-3.81-4.03-12.18-4.2-16.21-.39M282.19,135.61c1.81-.99,3.73-1.71,5.7-2.17l1.4-5.48,9.35.26,1.1,5.55c1.94.57,3.81,1.4,5.57,2.49l4.86-2.88,6.43,6.79-3.14,4.69c.99,1.82,1.71,3.73,2.17,5.7l5.48,1.4-.26,9.35-5.55,1.1c-.57,1.94-1.4,3.81-2.49,5.57l2.88,4.86-6.79,6.43-4.69-3.14c-1.82.99-3.73,1.71-5.7,2.17l-1.4,5.48-9.35-.26-1.1-5.55c-1.94-.57-3.81-1.4-5.57-2.49l-4.86,2.88-6.43-6.79,3.15-4.69c-.99-1.82-1.71-3.73-2.17-5.7l-5.48-1.4.26-9.35,5.55-1.1c.57-1.94,1.4-3.81,2.49-5.57l-2.88-4.86,6.79-6.43,4.69,3.15Z"/>
        <path class="cls-11" d="M666.17,631.77c-5.18,4.9-5.41,15.69-.51,20.87,4.9,5.18,15.69,5.41,20.87.51,5.18-4.9,5.41-15.69.51-20.87-4.9-5.18-15.69-5.41-20.87-.51M661.79,616.76c2.34-1.27,4.81-2.2,7.34-2.8l1.8-7.05,12.04.33,1.41,7.14c2.49.73,4.91,1.8,7.17,3.2l6.26-3.71,8.28,8.75-4.05,6.04c1.27,2.34,2.2,4.81,2.8,7.34l7.05,1.8-.33,12.04-7.14,1.41c-.73,2.49-1.8,4.9-3.2,7.17l3.71,6.26-8.75,8.28-6.04-4.05c-2.34,1.27-4.81,2.2-7.34,2.8l-1.8,7.05-12.04-.33-1.41-7.14c-2.49-.74-4.91-1.8-7.17-3.2l-6.26,3.71-8.28-8.75,4.05-6.04c-1.27-2.34-2.2-4.81-2.8-7.34l-7.05-1.8.33-12.04,7.14-1.41c.73-2.49,1.8-4.9,3.2-7.17l-3.71-6.26,8.75-8.28,6.05,4.05Z"/>
      </g>
      <g>
        <path class="cls-33" d="M329.57,479.58l.35-103.73,104.37.36-.35,103.72-104.37-.35ZM428.42,199.42c17.32-10.15,26.01-24.15,26.07-41.98.05-15.22-5.1-26.87-15.44-34.95-10.34-8.08-25.03-12.15-44.04-12.21-18.15-.06-35.13,3.56-50.93,10.85-15.81,7.3-31.29,18.48-46.47,33.55l-59.42-65.53c19.08-20.53,41.51-37.19,67.27-49.97,25.75-12.79,56.35-19.12,91.8-19,23.34.08,44.57,3.07,63.7,8.97,19.14,5.9,35.56,14.61,49.26,26.1,13.7,11.5,24.27,25.69,31.73,42.57,7.46,16.88,11.15,36.13,11.08,57.73-.07,20.75-3.46,38.56-10.17,53.45-6.71,14.89-15.76,27.5-27.17,37.83-11.42,10.33-24.87,18.61-40.35,24.82-15.48,6.22-32.09,11.02-49.82,14.42l-7.26,39.52-66.12-.23-14.55-105.07,3.25-3.23c41.06-1.6,70.25-7.48,87.58-17.64"/>
        <path class="cls-12" d="M316.7,490.5l.36-107.4,108.07.37-.37,107.4-108.07-.37ZM419.04,200.43c17.93-10.51,26.93-25.01,27-43.47.05-15.75-5.28-27.82-15.99-36.19-10.71-8.36-25.91-12.58-45.6-12.65-18.79-.06-36.38,3.68-52.73,11.23-16.37,7.56-32.4,19.14-48.11,34.74l-61.52-67.85c19.76-21.26,42.97-38.5,69.65-51.74,26.66-13.24,58.35-19.8,95.05-19.68,24.16.08,46.15,3.18,65.96,9.29,19.81,6.11,36.81,15.12,51.01,27.02,14.18,11.91,25.13,26.6,32.86,44.08,7.72,17.48,11.55,37.41,11.47,59.78-.07,21.48-3.59,39.93-10.53,55.34-6.94,15.41-16.32,28.47-28.14,39.17-11.83,10.7-25.75,19.27-41.78,25.7-16.03,6.44-33.22,11.41-51.58,14.93l-7.52,40.92-68.46-.23-15.07-108.79,3.37-3.34c42.51-1.66,72.74-7.74,90.68-18.27Z"/>
      </g>
      <g>
        <g>
          <path class="cls-25" d="M134.43,284.89l8.6-26.69,26.86,8.65-8.6,26.69-26.86-8.65ZM182.88,220.82c5.29-1.19,8.68-4.09,10.16-8.68,1.26-3.92.89-7.34-1.11-10.27-2-2.93-5.45-5.18-10.34-6.76-4.67-1.5-9.34-1.97-14.01-1.38-4.67.58-9.58,2.19-14.72,4.83l-9.93-21.76c6.6-3.72,13.74-6.18,21.43-7.36,7.68-1.18,16.09-.3,25.21,2.63,6.01,1.93,11.23,4.45,15.68,7.54,4.45,3.09,7.96,6.68,10.55,10.76,2.59,4.09,4.15,8.61,4.68,13.57.54,4.96-.09,10.22-1.88,15.78-1.72,5.34-4.06,9.65-7,12.94-2.95,3.29-6.32,5.79-10.1,7.52-3.79,1.73-7.93,2.76-12.43,3.09-4.5.33-9.17.21-14.02-.37l-5.11,9.59-17.02-5.48,4.87-28.26,1.1-.57c10.71,2.96,18.71,3.84,24.01,2.64"/>
          <path class="cls-16" d="M130.22,286.64l8.9-27.64,27.81,8.96-8.9,27.64-27.81-8.96ZM180.38,220.31c5.48-1.24,8.99-4.23,10.52-8.98,1.31-4.05.92-7.6-1.15-10.63-2.07-3.03-5.64-5.37-10.71-7-4.84-1.56-9.67-2.03-14.51-1.43-4.84.61-9.92,2.27-15.24,5l-10.28-22.53c6.83-3.86,14.23-6.39,22.19-7.62,7.96-1.22,16.66-.32,26.1,2.73,6.22,2,11.63,4.6,16.23,7.8,4.6,3.2,8.24,6.92,10.92,11.15,2.68,4.23,4.29,8.91,4.85,14.05.56,5.14-.09,10.58-1.95,16.34-1.78,5.53-4.2,9.99-7.25,13.39-3.05,3.4-6.54,6-10.46,7.78-3.92,1.79-8.21,2.85-12.87,3.19-4.66.34-9.5.21-14.51-.39l-5.29,9.93-17.62-5.68,5.04-29.26,1.14-.59c11.09,3.06,19.38,3.97,24.86,2.73Z"/>
        </g>
        <g>
          <path class="cls-36" d="M141.94,573.33l-12.45-35.39,35.61-12.53,12.45,35.39-35.61,12.53ZM141.66,465.87c4.67-5.56,5.94-11.38,3.8-17.47-1.83-5.19-4.99-8.54-9.5-10.04-4.5-1.5-10-1.11-16.49,1.18-6.19,2.18-11.54,5.47-16.04,9.87-4.5,4.4-8.42,10.09-11.77,17.07l-28.19-15.13c4.01-9.31,9.64-17.7,16.87-25.19,7.23-7.48,16.89-13.35,28.98-17.61,7.96-2.8,15.56-4.36,22.8-4.67,7.24-.31,13.89.67,19.95,2.92,6.06,2.26,11.39,5.81,15.98,10.66,4.59,4.85,8.18,10.96,10.77,18.33,2.49,7.08,3.49,13.56,3.01,19.45-.48,5.89-2.04,11.28-4.67,16.19-2.64,4.91-6.22,9.36-10.74,13.35-4.52,4-9.6,7.65-15.23,10.95l2.32,14.35-22.56,7.94-17.7-34.04.72-1.49c13.8-5.52,23.03-11.07,27.71-16.63"/>
          <path class="cls-4" d="M138.87,578.61l-12.9-36.64,36.87-12.98,12.9,36.64-36.87,12.98ZM138.58,467.35c4.84-5.76,6.15-11.79,3.93-18.09-1.89-5.38-5.17-8.84-9.84-10.39-4.66-1.55-10.36-1.15-17.07,1.22-6.41,2.26-11.95,5.66-16.61,10.22-4.66,4.56-8.72,10.45-12.18,17.67l-29.19-15.66c4.16-9.64,9.98-18.33,17.46-26.08,7.48-7.74,17.48-13.82,30-18.23,8.24-2.9,16.11-4.51,23.6-4.83,7.49-.32,14.38.69,20.66,3.03,6.28,2.34,11.79,6.02,16.54,11.04,4.75,5.02,8.47,11.35,11.16,18.98,2.58,7.33,3.62,14.04,3.12,20.14s-2.11,11.68-4.84,16.76c-2.73,5.08-6.44,9.69-11.12,13.82-4.68,4.14-9.94,7.92-15.77,11.34l2.4,14.86-23.36,8.22-18.32-35.25.74-1.55c14.29-5.72,23.85-11.46,28.69-17.22Z"/>
        </g>
        <g>
          <path class="cls-36" d="M680.17,338.04l-9.86-30.73,30.93-9.92,9.86,30.73-30.93,9.92ZM682.52,245.63c4.15-4.67,5.38-9.65,3.69-14.93-1.45-4.51-4.09-7.46-7.93-8.86-3.84-1.4-8.57-1.19-14.21.61-5.38,1.73-10.06,4.43-14.03,8.1-3.98,3.68-7.49,8.48-10.53,14.39l-23.88-13.69c3.68-7.91,8.71-14.99,15.11-21.25,6.39-6.26,14.84-11.07,25.34-14.44,6.92-2.22,13.49-3.37,19.72-3.46,6.23-.09,11.93.91,17.09,2.99,5.16,2.09,9.65,5.27,13.48,9.55,3.83,4.28,6.77,9.62,8.82,16.02,1.97,6.15,2.68,11.75,2.12,16.8-.56,5.05-2.02,9.65-4.41,13.81-2.39,4.16-5.57,7.9-9.56,11.22-3.98,3.33-8.44,6.34-13.36,9.05l1.65,12.39-19.59,6.28-14.4-29.7.65-1.27c12-4.42,20.07-8.96,24.23-13.63"/>
          <path class="cls-3" d="M677.41,342.51l-10.21-31.82,32.02-10.27,10.21,31.82-32.02,10.27ZM679.84,246.83c4.3-4.83,5.57-9.99,3.82-15.46-1.5-4.67-4.23-7.73-8.21-9.17-3.97-1.45-8.88-1.23-14.71.64-5.57,1.79-10.41,4.58-14.53,8.39-4.12,3.81-7.75,8.78-10.9,14.9l-24.73-14.17c3.81-8.19,9.02-15.52,15.65-22,6.62-6.48,15.37-11.46,26.24-14.95,7.16-2.3,13.96-3.49,20.41-3.59,6.45-.09,12.35.94,17.69,3.1,5.34,2.16,9.99,5.46,13.96,9.89,3.96,4.43,7.01,9.96,9.14,16.59,2.04,6.36,2.77,12.16,2.2,17.39-.57,5.23-2.1,9.99-4.57,14.3-2.47,4.3-5.77,8.18-9.9,11.62-4.13,3.44-8.74,6.57-13.83,9.37l1.7,12.83-20.29,6.51-14.91-30.75.68-1.31c12.42-4.57,20.79-9.28,25.08-14.11Z"/>
        </g>
        <g>
          <path class="cls-36" d="M62.77,163.79l-6.57-18.83,18.95-6.61,6.57,18.83-18.95,6.61ZM62.8,106.66c2.49-2.95,3.17-6.04,2.05-9.28-.96-2.76-2.64-4.55-5.03-5.35-2.39-.8-5.32-.6-8.77.6-3.3,1.15-6.14,2.89-8.54,5.22-2.4,2.33-4.49,5.35-6.28,9.06l-14.96-8.09c2.15-4.94,5.15-9.4,9.01-13.36,3.85-3.97,9-7.07,15.43-9.31,4.24-1.48,8.28-2.29,12.13-2.44,3.85-.15,7.38.38,10.6,1.59,3.22,1.21,6.04,3.11,8.48,5.69,2.43,2.58,4.33,5.84,5.7,9.76,1.31,3.77,1.84,7.22,1.57,10.34-.26,3.13-1.1,5.99-2.51,8.6-1.41,2.6-3.32,4.97-5.73,7.08-2.41,2.12-5.12,4.05-8.11,5.8l1.21,7.63-12.01,4.19-9.36-18.13.38-.79c7.34-2.91,12.26-5.85,14.76-8.8"/>
          <path class="cls-7" d="M61.14,166.59l-6.8-19.5,19.62-6.84,6.8,19.5-19.62,6.84ZM61.16,107.44c2.58-3.05,3.29-6.26,2.12-9.61-1-2.86-2.73-4.71-5.21-5.54-2.48-.83-5.5-.63-9.08.62-3.41,1.19-6.36,2.99-8.85,5.41-2.49,2.42-4.65,5.54-6.51,9.38l-15.49-8.37c2.22-5.12,5.33-9.73,9.32-13.84,3.99-4.11,9.32-7.32,15.98-9.64,4.39-1.53,8.57-2.37,12.56-2.53,3.98-.16,7.64.39,10.98,1.64,3.33,1.25,6.26,3.22,8.78,5.89,2.52,2.68,4.48,6.05,5.9,10.11,1.36,3.9,1.9,7.47,1.63,10.71-.27,3.24-1.14,6.21-2.6,8.9-1.46,2.7-3.44,5.14-5.93,7.33-2.5,2.19-5.3,4.19-8.4,6l1.25,7.9-12.43,4.33-9.69-18.77.4-.82c7.6-3.02,12.7-6.05,15.28-9.11Z"/>
        </g>
        <g>
          <path class="cls-36" d="M590.84,80.15l.13-11.71,11.79.13-.13,11.71-11.79-.13ZM602.24,48.59c1.96-1.13,2.96-2.71,2.98-4.72.02-1.72-.55-3.04-1.71-3.96-1.16-.92-2.82-1.39-4.96-1.42-2.05-.02-3.97.37-5.76,1.18-1.79.81-3.55,2.06-5.28,3.75l-6.65-7.45c2.17-2.3,4.72-4.16,7.64-5.59,2.92-1.42,6.38-2.11,10.38-2.07,2.64.03,5.03.38,7.19,1.07,2.16.68,4,1.68,5.54,2.99,1.54,1.31,2.72,2.92,3.55,4.83.83,1.91,1.23,4.09,1.2,6.53-.03,2.34-.42,4.35-1.19,6.03-.77,1.68-1.8,3.09-3.1,4.25-1.3,1.16-2.82,2.08-4.58,2.77-1.75.69-3.63,1.22-5.64,1.59l-.85,4.46-7.47-.08-1.55-11.88.37-.36c4.64-.15,7.94-.78,9.91-1.92"/>
          <path class="cls-8" d="M589.38,81.37l.13-12.13,12.2.13-.13,12.13-12.2-.13ZM601.19,48.7c2.03-1.17,3.06-2.8,3.09-4.89.02-1.78-.57-3.15-1.77-4.1-1.2-.95-2.92-1.44-5.14-1.47-2.12-.02-4.11.38-5.96,1.22-1.85.84-3.68,2.13-5.46,3.88l-6.89-7.71c2.25-2.38,4.89-4.31,7.91-5.78,3.02-1.47,6.61-2.19,10.75-2.14,2.73.03,5.21.4,7.44,1.11,2.23.71,4.14,1.74,5.74,3.1,1.59,1.36,2.82,3.03,3.67,5.01.86,1.98,1.27,4.23,1.24,6.76-.03,2.43-.44,4.51-1.24,6.24-.8,1.73-1.87,3.2-3.21,4.4-1.34,1.2-2.92,2.15-4.74,2.87-1.82.71-3.76,1.26-5.84,1.64l-.88,4.61-7.73-.09-1.61-12.3.38-.37c4.8-.15,8.22-.81,10.26-1.98Z"/>
        </g>
        <g>
          <path class="cls-25" d="M675.05,138.06l2.92-14.64,14.73,2.94-2.92,14.64-14.73-2.94ZM696.77,101.24c2.73-.95,4.34-2.69,4.84-5.2.43-2.15.03-3.94-1.21-5.36-1.24-1.43-3.2-2.41-5.88-2.95-2.56-.51-5.06-.47-7.49.12-2.43.59-4.93,1.74-7.49,3.45l-6.57-10.9c3.26-2.37,6.89-4.1,10.88-5.19,3.99-1.09,8.49-1.14,13.49-.14,3.29.66,6.21,1.67,8.75,3.03,2.54,1.36,4.62,3.05,6.23,5.05,1.62,2,2.72,4.3,3.3,6.89.59,2.59.57,5.41-.04,8.46-.58,2.93-1.56,5.35-2.92,7.26-1.36,1.92-2.99,3.45-4.89,4.59-1.9,1.14-4.03,1.94-6.38,2.39-2.36.45-4.84.67-7.43.65l-2.12,5.38-9.33-1.86.86-15.24.55-.37c5.84.91,10.13.89,12.85-.06"/>
          <path class="cls-6" d="M672.93,139.24l3.03-15.15,15.25,3.05-3.03,15.15-15.25-3.05ZM695.42,101.13c2.82-.99,4.5-2.78,5.02-5.39.44-2.22.03-4.07-1.25-5.55-1.28-1.48-3.31-2.49-6.09-3.05-2.65-.53-5.24-.49-7.76.12-2.52.61-5.1,1.8-7.76,3.57l-6.81-11.28c3.38-2.45,7.13-4.24,11.27-5.37,4.13-1.13,8.79-1.18,13.96-.14,3.41.68,6.43,1.73,9.06,3.14,2.63,1.41,4.78,3.16,6.45,5.23,1.67,2.07,2.81,4.45,3.42,7.13.61,2.68.59,5.6-.04,8.76-.61,3.03-1.61,5.54-3.02,7.52-1.41,1.98-3.09,3.57-5.06,4.75-1.97,1.18-4.17,2.01-6.61,2.47-2.44.46-5.01.69-7.7.68l-2.2,5.57-9.66-1.93.89-15.78.57-.38c6.05.94,10.48.92,13.31-.07Z"/>
        </g>
        <g>
          <path class="cls-25" d="M204.7,72.24l-1.8-7.77,7.82-1.81,1.8,7.77-7.82,1.81ZM207.17,49.52c1.12-1.07,1.52-2.27,1.21-3.6-.26-1.14-.86-1.92-1.77-2.35-.92-.42-2.09-.47-3.51-.14-1.36.32-2.57.89-3.62,1.71-1.06.83-2.02,1.94-2.89,3.33l-5.61-3.86c1.07-1.87,2.45-3.52,4.16-4.93,1.7-1.41,3.88-2.43,6.54-3.04,1.75-.41,3.39-.56,4.93-.45,1.54.1,2.92.47,4.15,1.09,1.23.62,2.27,1.5,3.13,2.63.86,1.13,1.47,2.51,1.85,4.13.36,1.56.42,2.95.18,4.18-.24,1.23-.7,2.34-1.37,3.31-.67.98-1.53,1.83-2.58,2.57-1.05.74-2.21,1.39-3.48,1.96l.15,3.09-4.96,1.15-2.94-7.61.19-.3c3.05-.84,5.13-1.8,6.25-2.86"/>
          <path class="cls-15" d="M203.93,73.29l-1.87-8.05,8.1-1.88,1.87,8.05-8.1,1.88ZM206.49,49.76c1.16-1.1,1.58-2.35,1.26-3.73-.27-1.18-.89-1.99-1.84-2.43-.95-.44-2.16-.49-3.64-.14-1.41.33-2.66.92-3.75,1.77-1.09.85-2.09,2-2.99,3.45l-5.8-4c1.11-1.94,2.54-3.64,4.3-5.1,1.76-1.46,4.02-2.51,6.77-3.15,1.81-.42,3.51-.58,5.1-.47,1.59.11,3.02.48,4.3,1.13,1.27.64,2.35,1.55,3.24,2.72.89,1.17,1.52,2.6,1.91,4.28.37,1.61.43,3.05.19,4.33-.25,1.28-.72,2.42-1.42,3.43-.7,1.01-1.59,1.9-2.68,2.66-1.09.76-2.29,1.44-3.6,2.03l.16,3.2-5.13,1.19-3.05-7.88.19-.31c3.15-.87,5.31-1.86,6.47-2.97Z"/>
        </g>
        <g>
          <path class="cls-25" d="M665.3,555.33l2.99-19.82,19.94,3.01-2.99,19.81-19.94-3.01ZM692.07,504.57c3.6-1.45,5.65-3.88,6.17-7.29.44-2.91-.22-5.28-1.97-7.11-1.75-1.84-4.44-3.03-8.07-3.57-3.47-.52-6.81-.31-10.04.64-3.23.95-6.5,2.65-9.83,5.1l-9.51-14.2c4.23-3.39,8.98-5.94,14.26-7.66,5.28-1.72,11.31-2.07,18.08-1.05,4.46.67,8.43,1.84,11.92,3.51,3.49,1.67,6.38,3.79,8.68,6.38,2.29,2.58,3.92,5.59,4.87,9.03.95,3.44,1.11,7.22.49,11.35-.6,3.96-1.75,7.27-3.45,9.93-1.7,2.66-3.79,4.81-6.26,6.47-2.47,1.65-5.28,2.86-8.41,3.61-3.13.75-6.44,1.2-9.93,1.35l-2.5,7.35-12.63-1.9.18-20.49.71-.53c7.89.85,13.64.55,17.24-.91"/>
          <path class="cls-17" d="M662.53,557.06l3.09-20.52,20.64,3.11-3.09,20.52-20.64-3.11ZM690.26,504.5c3.72-1.5,5.85-4.02,6.38-7.55.45-3.01-.22-5.47-2.04-7.37-1.81-1.9-4.6-3.13-8.36-3.7-3.59-.54-7.06-.32-10.39.66-3.34.98-6.73,2.75-10.17,5.29l-9.85-14.7c4.37-3.51,9.3-6.15,14.77-7.93,5.47-1.78,11.71-2.14,18.72-1.09,4.62.7,8.73,1.91,12.35,3.63,3.61,1.73,6.61,3.93,8.99,6.6,2.38,2.68,4.06,5.79,5.04,9.35.98,3.56,1.15,7.47.51,11.75-.62,4.1-1.81,7.53-3.57,10.28-1.76,2.75-3.92,4.98-6.48,6.69-2.56,1.71-5.46,2.96-8.71,3.74-3.24.78-6.67,1.25-10.28,1.4l-2.59,7.61-13.08-1.97.18-21.22.74-.54c8.17.88,14.12.57,17.85-.94Z"/>
        </g>
      </g>
      <g>
        <rect class="cls-1" x="74.94" y="209.44" width="625.24" height="490.77"/>
        <g class="cls-46">
          <g>
            <g>
              <g>
                <path class="cls-34" d="M301.36,468.81s-52.8,36.93-70.34,25.81c-17.54-11.12-14.17-12.11-14.17-12.11,0,0,23.89-7.03,25.34-11.74.55-1.79.78-7.03.84-12.83.11-9.45-.2-20.4-.2-20.4l55.48-28.87s-.11,1.31-.26,3.48t0,0c-.53,7.51-1.21,15.42-.33,25.41,1.15,12.89,3.63,31.24,3.63,31.24"/>
                <path class="cls-27" d="M298.32,408.67s-.11,1.31-.26,3.48t0,0c-9.89,36-35.62,42.84-41.52,43.29-5.9.45-13.5,2.49-13.5,2.49.11-9.45-.2-20.4-.2-20.4l55.48-28.87Z"/>
                <path class="cls-34" d="M272.68,441.81c18.14-9.33,29.28-29.86,28.53-51.42-1.06-30.57-20.76-71.46-46.65-72.23-25.89-.77-36.29,2.93-38.08,33.47-3.13,53.61.38,63.76,7.68,78,3.2,6.24,9.48,11.23,15.27,14.24.45.23.9.46,1.34.67,3.29,1.56,6.33,2.44,8.42,2.5.62.02,1.23.03,1.84.02.66,0,1.32-.02,1.98-.05,3.13-.14,6.15-.57,9.06-1.27.27-.06.53-.13.8-.2,3.16-.81,6.16-1.93,9.01-3.33.26-.13.53-.26.79-.4Z"/>
                <path class="cls-34" d="M309.11,406.94c-4.95,4.66-9.18,1.1-9.18,1.1-2.97-6.64,1.28-17.65,1.28-17.65,0-6,4.89-14.61,12.88-11.54.76.29,1.55.69,2.37,1.21,9.39,5.95-.79,20.7-7.35,26.88"/>
                <path class="cls-27" d="M315.15,387.31c.64,3.66-1.57,6.79-3.99,9.61-2.53,2.94-3.49,3.46-4.46,3.98-.98.52-1.85.53-2.21-.51-.36-1.01.44-2.01,1.08-2.87.63-.86,2.6-2.44,1.77-3.11-.39-.31-1.24-1.08-1.08-1.9.21-1.06.29-1.71.5-2.77.26-1.38.85-2.87,1.34-3.61.8-1.23,2.1-2.39,3.56-2.2,1.53.19,3.24,1.87,3.5,3.39"/>
                <path class="cls-28" d="M321.52,329.51c-.01.45-.04.94-.08,1.47-.18,2.37-.63,5.64-1.64,9.95-2.34,10.02-5.8,26.9-5.69,37.91-7.99-3.08-12.88,5.54-12.88,11.54,0,0-1.77-23.16-13.93-30.28,0,0-.28-5.04.24-8.2.11-.65.13-1.6.09-2.7-.01-.37-.03-.76-.05-1.16-.25-4.21-1.07-9.69-1.07-9.69l34.89-12.34s.22,1.08.13,3.49"/>
                <path class="cls-45" d="M323.64,326.19c.14,1.18-.44,2.34-1.48,2.93-.78.45-1.8,1.1-2.93,2.01-6.69,5.41-16.53,15.75-31.67,16.92,0,0-2.84.07-7.32-.22-2.61-.17-5.78-.47-9.25-.99-10.94-1.62-36.2,6.03-51.65,1.43-.06-.02-.12-.04-.18-.06-1.5-.45-2.95-.93-4.34-1.45-12.85-4.76-20.88-12.69-19.9-30.4,0,0,.73,8.97,5.26,12.59-.09-.22-3.79-9.32-1.22-17.08h0c.53-1.62,1.35-3.19,2.53-4.6,6.88-8.25,6.5-12.24,6.5-12.24,0,0,3.54,3.59,3.39,9.41.24-1.95,1.68-7.2,9.83-13.49,10.35-7.98,11.68-8.11,16.31-7.47,0,0-1.26,8.92,3.72,8.9,4.98-.01,3.77-4.03,12.03-3.12,6.35.7,19.43-1.14,30.87.39,3.45.47,6.75,1.23,9.67,2.48,11.12,4.72,26.07,18.95,29.3,31.34.24.92.42,1.83.52,2.73"/>
                <path class="cls-45" d="M220.62,346.58c-.42.14-.93.78-1.45,1.63-1.39,2.3-2.83,6.17-2.83,6.17-.83-2.52-1.27-5.44-1.51-7.62-.21-1.92-.25-3.28-.25-3.28,0,0,7.61,2.58,6.04,3.09"/>
                <g class="cls-42">
                  <path d="M323.64,326.19c.14,1.18-.44,2.34-1.48,2.93-.78.45-1.8,1.1-2.93,2.01-6.69,5.41-16.53,15.75-31.67,16.92,0,0-2.84.07-7.32-.22-2.61-.17-5.78-.47-9.25-.99-10.94-1.62-36.2,6.03-51.65,1.43-.06-.02-.12-.04-.18-.06-1.39,2.3-2.83,6.17-2.83,6.17-.83-2.52-1.27-5.44-1.51-7.62-12.85-4.76-20.88-12.69-19.9-30.4,0,0,.73,8.97,5.26,12.59-.09-.22-3.79-9.32-1.22-17.08h0s-1.15,18.64,22.17,24.32c0,0-7.22-3.38-8.45-7.8.18.24,6.15,7.91,23.25,10.27,0,0-27.07-16.14-24.6-33.43,0,0,3.92,20.35,29.03,31.45-.18-.14-6.06-4.52-6.06-6.97,0,0,6.42,7.51,16.4,4.71,0,0-14.65-7.63-18.61-14.27,0,0,17.94,13.65,31.92,13.61,13.97-.04,19.85.29,33.61-2.93,0,0-25.85-4.32-34.02-13.85,0,0,10.71,8.1,31.66,6.76,0,0-40.29-15.28-47.06-31.32.54,1.07,8.33,14.98,50.31,23.56,34.46,7.04,6.85-16-14.39-26.36,3.45.47,6.75,1.23,9.67,2.48,11.12,4.72,26.07,18.95,29.3,31.34.24.92.42,1.83.52,2.73"/>
                </g>
                <g class="cls-40">
                  <path d="M228.8,314.69s-7.53-13.36-3.47-23.06c0,0-6.21,8.35,3.47,23.06"/>
                </g>
                <g class="cls-40">
                  <path d="M242.19,321.35s11.24,10.45,32.92,10.34c0,0-18.44,3-32.92-10.34"/>
                </g>
                <g class="cls-40">
                  <path d="M255.97,315.04s3.3,10.75,19.21,14.24c0,0-14.76-1.42-19.21-14.24"/>
                </g>
                <g class="cls-42">
                  <path d="M321.52,329.51c-.01.45-.04.94-.08,1.47-3.26,2.14-6.86,6.87-15.94,12.21-11.17,6.57-17.88,6.02-17.88,6.02-.01-.37-.03-.76-.05-1.16,15.14-1.17,24.98-11.51,31.67-16.92.84-.68,1.61-1.21,2.28-1.63"/>
                </g>
                <path class="cls-45" d="M282.72,375.43c-.08-.09-.17-.17-.25-.25-4.67-4.45-10.1-6.09-15.7-4.65-.48.12-1,.29-1.43.95-.83,1.26-.99,2.71-1.01,4.82,6.54-2.93,13.06-2.46,18.97,1.39.22-.7.16-.75-.03-1.33-.14-.42-.33-.7-.55-.93"/>
                <path class="cls-45" d="M221.47,374.55c.09-.09.18-.16.26-.24,4.9-4.19,10.42-5.54,15.92-3.8.48.15.98.35,1.38,1.03.76,1.31.84,2.76.75,4.86-6.37-3.27-12.91-3.16-19.01.37-.19-.71-.12-.76.1-1.33.16-.41.37-.68.59-.9"/>
                <path class="cls-45" d="M266.98,385.79c.06,3.02,2.14,5.43,4.64,5.37,2.5-.05,4.48-2.55,4.41-5.57-.06-3.02-2.14-5.43-4.64-5.37-2.5.05-4.48,2.55-4.41,5.56"/>
                <path class="cls-45" d="M226.5,385.32c.06,3.02,2.14,5.43,4.64,5.37,2.5-.05,4.48-2.55,4.41-5.57-.06-3.02-2.14-5.43-4.64-5.37-2.5.05-4.48,2.55-4.41,5.56"/>
                <path class="cls-27" d="M249.5,385.64c-.06-.36-.03-.73.08-1.09.28-.84.89-2.04,1.72.31.95,2.71.52,15.72-.8,20.54-.3,1.1.22,2.26,1.26,2.72l1.82.82c.57.26,1.04.73,1.23,1.33.21.68,0,1.44-1.89,1.5-3.44.1-7.52-3.33-6.24-6.52,1.25-3.13,4.12-11.44,2.82-19.61"/>
              </g>
              <path class="cls-45" d="M240.98,424.87c.42.32,1.62-.25,3.42-.97,1.8-.73,4.29-1.58,7.11-1.92,2.83-.34,5.45-.11,7.38.17,1.94.27,3.24.53,3.56.12.15-.2.02-.54-.39-.96-.41-.43-1.12-.93-2.12-1.41-1-.48-2.29-.9-3.81-1.16-1.51-.26-3.25-.32-5.06-.11-1.81.22-3.48.7-4.88,1.31-1.4.61-2.55,1.33-3.39,2.03-.85.7-1.41,1.36-1.7,1.87-.29.52-.33.87-.13,1.03"/>
              <g>
                <g>
                  <path class="cls-25" d="M186.93,567.35c18.33.23,33.44-14.5,33.67-32.84.23-18.33-14.5-33.44-32.83-33.67-18.34-.23-33.44,14.5-33.67,32.84-.23,18.33,14.5,33.44,32.84,33.67"/>
                  <path class="cls-25" d="M200.23,691.46l.27-3.89c.77-11.23,7.85-89.61,18.94-142.75l.8-3.85-63.72-19.35-1.01,3.22c-22.31,44.83-16.03,156.58-12.52,161.75l-.06,4.16,57.3.72h0Z"/>
                  <path class="cls-25" d="M171.28,716.94c13.07.16,24.62-8.54,28.08-21.17,4.19-15.3-4.85-31.15-20.15-35.34-2.37-.65-4.81-.99-7.25-1.02-13.07-.16-24.63,8.54-28.09,21.17-4.19,15.3,4.85,31.14,20.15,35.33,2.37.65,4.82.99,7.26,1.02"/>
                </g>
                <g>
                  <path class="cls-25" d="M178.78,693.93c15.84-3.26,26.07-18.79,22.81-34.63-3.26-15.84-18.79-26.07-34.63-22.81-15.84,3.26-26.07,18.79-22.81,34.63,3.26,15.83,18.79,26.07,34.63,22.81"/>
                  <path class="cls-25" d="M190.97,735.86c1.4-6.32,2.82-12.75,4.13-19.09,5.19-25.08,6.15-39.8,6.18-40.41l.2-3.27-57.68-4.03-2.87,3.26c3.63,13.4-1.7,110.47-1.7,110.47l49.53.2s-2.12-27.62,2.2-47.12"/>
                </g>
              </g>
              <g>
                <path class="cls-20" d="M167.99,607.61s1.78,76.39,0,119.92c-.42,10.21-2.12,30.47-3.49,33.97-3.84,9.78.38,41.2,24.89,36.8,9.73-1.74,21.01,4.18,39.58,1.84,29.38-3.72,62.59,2.23,75.99-10.47,25.17-23.84,46.07-19.85,62.15-19.1,0,0-7.43-91.76-3.91-137.43,1.65-21.43-.24-38.69,2.65-72.38,3.26-38.13-.76-76.26-.76-76.26,0,0-40.77-22.27-62.54-29.25l-37.66,16.87s-7.34,3.93-14.69,1.2c-7.35-2.73-15.04,2.56-15.04,2.56,0,0-43.1,12.76-70.13,33.89l2.96,97.84Z"/>
                <g>
                  <path class="cls-36" d="M297.71,437.04s-.88,11.53-16.87,21.09c-15.67,9.37-25.94,16.06-25.94,16.06l10.14,19.06,43.84-35.82-11.17-20.4Z"/>
                  <path class="cls-36" d="M242.98,462.93l-11.4,13.59,13.04,15.74,11.37-18.57c-8.42-3.95-13.87-7.63-13.01-10.75Z"/>
                </g>
                <path class="cls-23" d="M167.44,589.27l.56,18.34s1.78,76.39,0,119.92c-.42,10.21-2.12,30.47-3.49,33.97-1.97,5.02-1.82,15.72,2.1,24.37l-.88.2s-7.88-8.53-2.46-27.44c5.42-18.91,4.31-95.67,3.76-111.25-.37-10.23-1.05-37.97-.69-61.8-.08-8.56.11-25.33,2.46-37.78,0,0-1.64,13.95-1.35,41.47Z"/>
              </g>
              <g>
                <path class="cls-23" d="M285.3,504.87l10.81-2.52.64,7.32,4.26-1.76c2.73,12.82,6.35,24.84,10.96,35.96,0,0,3.43-9.49,4.59-20.84,1.35-13.16,2.34-19.8,5.79-25.58,9.76-16.37,18.57,31.16,18.57,31.16l23.97,45.51c-1.46,25.29-.27,40.62-1.69,59.01-.08,1.08-.16,2.19-.23,3.33-3.99,10.64-9.29,36.08-19.13,42.03-13.16,7.96-46.87,15.26-59.68-21.53-12.81-36.79-28.07-91.02-43.06-132.98l6-2.18-2.41-6.54,13.57-3.22c2.57,3.61,29.35,2.65,27.02-7.17Z"/>
                <g>
                  <path class="cls-24" d="M278.69,465.18c2.14,7.97,2.62,12.09,3.88,20.51.3,2.02.71,4.04,1.17,6.01,2.32,9.82,6.14,18.26,6.14,18.26l-33.55,5.78c-1.37-6.93-3.5-11.54-6.07-15.14-3.85-5.41-8.68-8.56-13.44-13.9-7.92-8.9-2.53-11.79-2.53-11.79-1.41-.82-2.67-3.33-1.63-6,.48-1.24,1.01-1.9,1.44-2.27.5-.43.86-.44.86-.44-2.22-4.21,2.98-6.78,2.98-6.78-2.74-3.81,2.01-7.35,2.01-7.35-1.86-.51-2.69-2.78-1.82-5.22.87-2.44,1.14-3.3,9.94-.86,8.8,2.44,16.9,11.57,16.19,7.96-.71-3.61-4.41-23.17.45-24.72,4.86-1.55,4.12,3.94,9.99,22.53,1.79,5.67,3.05,9.92,3.99,13.41Z"/>
                  <path class="cls-22" d="M240.31,452.43c-.19,0-.34-.15-.34-.34,0-.19.16-.34.35-.35,0,0,2.35,0,4.53,1.38.16.1.21.32.11.48-.1.16-.31.21-.48.11-2.01-1.27-4.17-1.28-4.17-1.28Z"/>
                  <path class="cls-22" d="M238.22,459.9c-.19-.04-.31-.23-.27-.41.04-.18.22-.3.41-.26,0,0,1.16.25,2.07.64.43.19.81.41,1.01.64.13.14.11.36-.03.49-.14.12-.36.11-.49-.03-.21-.24-.67-.44-1.14-.61-.77-.28-1.57-.45-1.57-.45Z"/>
                  <path class="cls-22" d="M235.15,466.7c-.18-.07-.27-.26-.2-.45.07-.18.27-.27.44-.2,0,0,.75.28,1.34.65.29.18.54.38.68.58.11.16.08.37-.08.48-.15.11-.37.08-.48-.08-.14-.2-.44-.38-.73-.55-.48-.27-.98-.45-.98-.45Z"/>
                  <path class="cls-22" d="M262.89,445.53c.49,3.8,1.12,7.12,1.38,8.41.63,3.2-5.65-3.61-13.21-6.9-.97-.42-1.97-.79-2.97-1.06-3.74-1.04-5.93-1.48-7.29-1.45-.44-.21-.89-.43-1.35-.67,1.08-.39,2.94-.61,5.94.24,2.8.8,4.98,1.52,7.65,2.89,2.63,1.36,5.74,3.35,10.4,6.7,0,0-.78-3.55-1.34-7.96-.31-2.45-.55-5.16-.55-7.68,0-7.07.7-9.28,3.61-9.87,2.91-.6,4.1.39,6.28,8.79.35,1.36.78,3.02,1.26,4.84,2.46,9.44,6.08,23.34,6.08,23.34l-.07.03c-.94-3.5-2.2-7.74-3.99-13.41-1.16-3.69-2.07-6.85-2.81-9.56-2.99-10.93-3.28-14.22-7.18-12.98-3.13.99-2.71,9.44-1.83,16.31Z"/>
                  <path class="cls-21" d="M267.55,429.53c-.54-.1-2.13-.27-2.17,1.15-.04,1.66.46,7.32,4.86,5.4-.97-3.56-1.66-5.64-2.69-6.55Z"/>
                </g>
                <g>
                  <g>
                    <path class="cls-25" d="M344.13,542.56c-18.08-5.74-28.6-23.6-23.46-39.8,5.14-16.21,24.04-24.72,42.12-18.99,18.08,5.74,28.61,23.6,23.47,39.81-5.14,16.21-24.04,24.72-42.13,18.98"/>
                    <path class="cls-25" d="M294.72,647.46l.88-3.51c2.53-10.13,19.1-83.66,23.77-134.01l.78-5.22,67.27,7.47.05,3.16c-.63,44.33-33.72,142.07-35.07,146.38l-1.16,3.68-56.51-17.94h0Z"/>
                    <path class="cls-25" d="M315.7,679.25c-12.89-4.09-21.69-15.49-21.39-27.73.37-14.82,13.89-25.83,30.14-24.57,2.52.2,5.01.69,7.42,1.45,12.89,4.09,21.69,15.5,21.39,27.73-.36,14.82-13.89,25.83-30.14,24.56-2.52-.2-5.02-.69-7.43-1.45"/>
                  </g>
                  <g>
                    <path class="cls-36" d="M296.62,519.01l-1.04-13.67-46.91,11.92,5.96,16.37,41.99-14.62Z"/>
                    <path class="cls-25" d="M316.9,612.72c18.75-1.33,35.08,12.83,36.42,31.58,1.33,18.75-12.83,35.08-31.58,36.42-18.75,1.34-35.08-12.83-36.42-31.58-1.33-18.74,12.83-35.08,31.58-36.42"/>
                    <path class="cls-25" d="M317.35,561.96c3.55,6.63,7.17,13.38,10.63,20.06,13.69,26.43,19.39,42.6,19.63,43.28l1.26,3.6-62.06,27.99-1.06-3.85c-1.24-4.49-41.04-127.3-41.04-127.3l55.36-15.81s6.32,31.57,17.28,52.04"/>
                  </g>
                </g>
                <path class="cls-23" d="M313.35,553.6s13.22,27.79,22.99,55.74c9.77,27.94,6.01,33.95,6.01,33.95,0,0,5.56-8.41-5.11-36.51-10.67-28.1-23.44-57.7-23.44-57.7,0,0-2.1.3-.45,4.51Z"/>
              </g>
            </g>
            <g>
              <path class="cls-30" d="M596.54,864.32c-6.07,70.59-12.13,139.2-13.48,154.34-.16,1.8-1.56,3.22-3.36,3.39-17.59,1.75-117.26,11.34-155.18,7.4-1.22-.12-2.13-1.17-2.11-2.39.34-16.01,2.01-116.92-8.64-151.53-5.36-17.42-8.62-33.53-9.58-49.35-.08-1.3-.15-2.6-.2-3.9-.62-17.01,1.46-33.81,6.51-51.69,10.13-35.83,18.82-75.28,18.82-75.28l74.42,1.27h.12s73.48,1.26,73.48,1.26c0,0,26.06,86.49,19.18,166.48"/>
              <g>
                <path class="cls-24" d="M565.43,387.25s-7.69-4.87-12.34-5.64c-4.66-.78-12.7.28-21.09,1.69-8.4,1.41-12.13-1.34-16.65-2.54-4.51-1.2-4.66-3.1-4.3-4.16.36-1.06,4.24-5.15,20.74-2.68,0,0-13.05-6.63-17.64-7.26-4.58-.63-12.91-.14-16.86.07-3.95.21-7.34-1.55-5.71-5.86,0,0-4.66.85-5.29-1.98-.63-2.82.64-5.08,4.09-6.06,0,0-1.06-3.17,4.09-5.15,5.15-1.98,8.04-2.96,8.04-2.96,0,0-1.2-2.47,6-4.72,7.19-2.26,12.06-4.3,21.3-.99,9.24,3.32,14.39,6,19.75,9.94,5.36,3.95,5.78,4.16,13.61,6.42,7.83,2.26,11.22,3.52,11.22,3.52,0,0-6.07,24.13-8.96,28.36Z"/>
                <path class="cls-21" d="M512.76,379.78c.22-.97.81-2.33,2.43-2.39,2.53-.1,5.18,1.04,5.54,2.17.19.63-.24,1.84-.67,2.8-1.63-.56-3.12-1.17-4.71-1.59-1.11-.29-1.95-.63-2.59-.99Z"/>
                <path class="cls-22" d="M529.91,362.38c-.12-.15-.2-.33-.32-.48,0,0-10.89-4.27-15.75-4.41-4.17-.12-15.25,1.81-20.3,2.73-1.11.2-1.66.38-1.66.38,0,0-.01.01-.02.02-.08.08-.12.2-.09.32.02.11.1.21.21.25.05.02.11.05.17.05.01,0,16.57-2.83,21.65-2.7,3.38.09,10.86,2.4,15.2,3.87.09.03.19.06.29.09.02,0,.04.03.06.02.28-.06.28-.09.55-.15Z"/>
                <path class="cls-22" d="M535.23,355.34c-.15-.11-.17-.35-.32-.46-.02,0-12.33-4.44-17.16-5.21-.79-.13-2.71-.44-14.09.94-5.94.72-13.07,1.85-13.08,1.86h0c-.09.08-.14.2-.13.32.01.12.09.23.21.28.05.03.1.05.16.06,0,0,8.67-1.11,16.85-1.83,8.83-.78,9.68-.42,10-.37.24.04,2.57.33,12.95,3.39,1.22.36,2.98.89,4,1.2.02,0,.04.03.06.02.27-.08.26-.11.53-.19Z"/>
                <path class="cls-22" d="M538.55,348.72c-.14-.13-.17-.35-.31-.47-.02-.02-11.71-4.59-17.11-5.12-.12-.01-4.25-.62-16.52.9-1.22.15-1.7.23-1.7.24,0,0,0,0-.01,0-.09.09-.13.21-.11.33.02.12.1.23.22.28.03.01.07.03.11.04.09.02,13.34-1.41,18.96-.49.29.05,4.4.63,14.61,4,1.29.43,1.29.46,1.33.45.18-.05.36-.12.54-.17Z"/>
              </g>
              <g>
                <g>
                  <path class="cls-36" d="M595.54,495.9c-12-10.09-29.98-8.53-40.07,3.47-10.09,12-8.53,29.98,3.47,40.07,12.01,10.09,29.98,8.53,40.07-3.47,10.09-12,8.53-29.98-3.47-40.07"/>
                  <path class="cls-36" d="M654.01,406.6l-2.29,2.43c-6.59,7.01-62.38,87.91-89.89,84.15l-2.61,2.11,31.66,47.33,8.97,11.05c33.29-23.15,81.81-102.53,84.5-105.72l2.67-7.27-33-34.1h0Z"/>
                  <path class="cls-36" d="M679.12,414.45c-8.56-7.19-20.92-7.69-30.05-1.22-11.06,7.85-13.67,23.23-5.83,34.29,1.22,1.72,2.64,3.26,4.24,4.61,8.56,7.19,20.92,7.7,30.05,1.22,11.06-7.85,13.67-23.23,5.82-34.29-1.22-1.71-2.65-3.27-4.25-4.61"/>
                </g>
                <g>
                  <path class="cls-25" d="M556.29,392.87l-11.22-3.22,18.03-37.07,12.63,7.8-19.44,32.49Z"/>
                  <path class="cls-36" d="M630.94,425.95c-4.35,15.4,4.64,31.47,20.05,35.82,15.4,4.35,31.47-4.65,35.82-20.05,4.35-15.41-4.65-31.47-20.05-35.82-15.4-4.35-31.47,4.64-35.82,20.05"/>
                  <path class="cls-36" d="M588.53,417.57c4.92,4.11,9.92,8.29,14.9,12.32,19.68,15.98,32.18,23.52,32.7,23.84l2.78,1.67,29.81-48.86-3.03-1.55c-3.53-1.81-94.85-54.26-94.85-54.26l-22.73,43.44s25.24,10.72,40.41,23.39"/>
                </g>
                <path class="cls-19" d="M623.33,445.21s5.06,7.44,18.61,11.78c0,0-12.48-6.34-18.61-11.78Z"/>
              </g>
              <g>
                <path class="cls-35" d="M384.38,529.75c5.8,6.7,13,10.33,24.69,12.54,7.22,1.37,16.16,2.21,27.55,2.89,29.81,1.81,89.68-8.54,89.68-8.54h0c.24.19,5.97,4.47,14.23,6.89,10.48,3.08,14.31-1.43,27-16.43,13.57-16.06,15.91-19.48,11.97-28.89-2.71-6.47-5.69-12.31-8.25-15.94-6.47-9.18-7.75-13.95-9-20.52,0,0,18.72-7.38,17.74-23.64-.99-16.26-8.62-28.33-9.12-49.76-.49-21.43-14.78-49.76-30.05-59.37-15.27-9.61-42.37-24.14-69.71-9.36-27.34,14.78-35.96,22.66-39.41,64.79-3.45,42.12-15.77,50.49-29.07,61.33-13.3,10.84-13.55,11.82-13.3,17.24.24,5.42-6.9,12.32-4.44,19.21,2.46,6.89,4.14,11.58-.52,16.75-4.65,5.17-9.38,19.95,0,30.79"/>
                <g class="cls-39">
                  <path d="M409.07,542.29c7.22,1.37,16.16,2.21,27.55,2.89,29.81,1.81,89.68-8.54,89.68-8.54h0c.24.19,5.97,4.47,14.23,6.89,14.32-28.61-19.05-57.85-1.2-81.78,14.47-19.4-37.27-56.13-37.27-56.13,0,0-46.22-9.38-46.64,36.94-.34,36.85-33,82.56-46.35,99.71"/>
                </g>
                <path class="cls-34" d="M465.41,489.8s52.08,36.43,69.38,25.45c17.3-10.97,14.1-13.72,14.1-13.72,0,0-23.69-5.16-25.12-9.8-.55-1.77-.77-6.93-.83-12.66-.11-9.32.2-20.12.2-20.12l-54.73-28.48s.1,1.29.26,3.43t0,0c.52,7.4,1.2,15.21.32,25.06-1.13,12.72-3.59,30.81-3.59,30.81"/>
                <path class="cls-27" d="M468.41,430.48s.1,1.29.26,3.43t0,0c9.75,35.51,36.32,41.02,42.14,41.47,5.82.44,12.12,3.69,12.12,3.69-.11-9.32.2-20.12.2-20.12l-54.73-28.48Z"/>
                <path class="cls-34" d="M462.32,412.52c1.05-30.16,23.72-70.56,49.25-71.32,25.53-.76,35.8,2.89,37.56,33.01,3.09,52.88-.38,62.89-7.57,76.94-5.22,10.2-18.78,16.99-24.7,17.17-30.98.92-55.56-26.43-54.54-55.79"/>
                <path class="cls-34" d="M454.96,428.66c5.11,4.81,9.47,1.13,9.47,1.13,3.06-6.85-1.32-18.2-1.32-18.2,0-6.19-5.04-15.07-13.29-11.9-.79.3-1.6.71-2.44,1.24-9.68,6.13.82,21.35,7.59,27.73"/>
                <path class="cls-27" d="M448.74,408.42c-.66,3.78,1.62,7.01,4.12,9.92,2.61,3.03,3.6,3.57,4.6,4.1,1.01.54,1.91.55,2.28-.53.37-1.04-.46-2.07-1.11-2.96-.65-.89-2.68-2.52-1.83-3.21.4-.32,1.28-1.12,1.11-1.96-.22-1.1-.3-1.76-.51-2.86-.27-1.43-.88-2.96-1.38-3.73-.83-1.27-2.17-2.46-3.67-2.27-1.57.2-3.34,1.93-3.61,3.5"/>
                <path class="cls-45" d="M506.38,447.48c.36.28,1.4-.21,2.97-.84,1.56-.63,3.72-1.37,6.18-1.67,2.46-.3,4.74-.1,6.42.15,1.68.23,2.82.46,3.1.11.13-.17.02-.47-.34-.84-.36-.37-.98-.81-1.84-1.22-.87-.41-1.99-.79-3.31-1.01-1.32-.22-2.83-.28-4.4-.09-1.57.19-3.02.61-4.24,1.14-1.22.53-2.22,1.16-2.95,1.76-.74.61-1.22,1.18-1.48,1.63-.25.45-.28.76-.11.89"/>
                <path class="cls-45" d="M484.17,399.11c.07-.1.13-.19.2-.28,3.82-5.09,8.84-7.57,14.52-7.07.49.04,1.02.12,1.55.7,1.01,1.09,1.4,2.48,1.76,4.52-6.84-1.79-13.1-.27-18.23,4.43-.33-.64-.28-.7-.19-1.3.06-.43.21-.73.38-.99"/>
                <path class="cls-45" d="M543.78,398.57c-.07-.1-.14-.19-.21-.28-3.9-5.03-8.95-7.44-14.62-6.87-.49.05-1.01.14-1.54.72-1,1.11-1.37,2.5-1.7,4.55,6.81-1.88,13.1-.46,18.29,4.17.32-.65.27-.71.17-1.3-.07-.43-.22-.73-.39-.99"/>
                <path class="cls-45" d="M499.32,407.91c-.06,2.98-2.11,5.35-4.58,5.3-2.47-.05-4.41-2.51-4.35-5.49.06-2.98,2.11-5.35,4.58-5.3,2.47.05,4.41,2.51,4.35,5.49"/>
                <path class="cls-45" d="M539.25,407.45c-.06,2.98-2.11,5.35-4.58,5.3-2.47-.05-4.41-2.51-4.35-5.49.06-2.98,2.11-5.35,4.58-5.3,2.47.05,4.41,2.51,4.35,5.49"/>
                <path class="cls-27" d="M516.56,407.76c.06-.36.03-.73-.08-1.07-.27-.83-.88-2.01-1.69.3-.94,2.67-.52,15.51.79,20.26.3,1.08-.21,2.23-1.24,2.69l-1.8.81c-.57.25-1.03.72-1.21,1.31-.2.67,0,1.42,1.86,1.48,3.4.1,7.41-3.29,6.15-6.43-1.24-3.09-4.06-11.28-2.78-19.34"/>
                <path class="cls-35" d="M506.27,357.55s25.12-3.91,31.18,7.62c6.05,11.52,11.91,27.22,14.65,54.42,0,0,6.87-54.23-1.84-67.5-8.71-13.28-35.12-23.63-55.41-9.76-20.28,13.86-35.14,49.75-32.57,68.93,0,0,.5-3.12,2.51-4.96,2.01-1.84,13.12-9.77,20.63-22.72,7.52-12.95,11.11-25.39,20.84-26.02"/>
                <g class="cls-39">
                  <path d="M545.01,465.75s9.94.21,17.24-3.99c0,0-7.58,6.57-17.24,3.99"/>
                </g>
                <g class="cls-39">
                  <path d="M507.38,357.41s-7.44-5.51-10.64-9.83c0,0,2.73,5.83,10.64,9.83"/>
                </g>
                <g class="cls-39">
                  <path d="M472.76,325.33s-31.81,14.11-34.69,41.89c0,0,2.01-22.6,34.69-41.89"/>
                </g>
                <g class="cls-39">
                  <path d="M432.19,404.52c0-.63-.91-.74-1.04-.12-1.12,5.29-1.88,15.01-4.93,21.39-4.61,9.64-13.94,23.12-21.86,27.59-7.92,4.46-15.1,12.45.16,3.09,14.27-8.75,27.53-29.91,27.66-51.95"/>
                </g>
                <g class="cls-39">
                  <path d="M388.7,494.18s37.57-13.3,42.18-39.4c0,0-5.18,21.98-42.18,39.4"/>
                </g>
                <g class="cls-39">
                  <path d="M514.28,352.49s21.03-2.42,28.11,12.79c7.08,15.21,13.3,48.25,11.21,62.87,0,0,5.28-28.5-10.07-63.63-7.97-18.24-29.25-12.03-29.25-12.03"/>
                </g>
                <g class="cls-39">
                  <path d="M571.26,449.99c-.45.64,9.31-4.39,3.04-30.4,0,0,3.42,21.09-3.04,30.4"/>
                </g>
                <g class="cls-39">
                  <path d="M491.78,362.05s-15.29,32.68-29.2,36.98c0,0,12.34-5.43,29.2-36.98"/>
                </g>
              </g>
              <g>
                <path class="cls-25" d="M583.06,562.06l-12.08,144.95-.77,34.4s-18.88,2.16-38.37,3.19l-2.26.11c-16.1.78-32.12.7-37.81-2.08-12.84-6.27-27.98-183.48-27.98-183.48l-9.02-67.89s5.1-10.29,11.45-17.61c.28-.32.74-.38,1.1-.16,3.94,2.49,25.73,16.23,33.78,20.67,8.87,4.9,7.49,6.57,8.26,11.62.56,3.76,3.34,5.9,4.72,6.76.47.29.78.43.78.43,0,0,.61-.41,1.31-1.29,1.24-1.57,2.76-4.63,1.61-9.51,0-.02,0-.04-.01-.05-.05-.25-.11-.5-.17-.74-1.49-7.46,5.09-16.12,5.35-21.43,0,0,.56-.93,3.91.17.83.27,1.74.82,2.66,1.5,0,0,0,0,0,.02,4.56,3.35,8.57,9.02,8.57,9.02l44.95,71.4Z"/>
                <g class="cls-42">
                  <path d="M454.77,491.27s21.36,26.73,34.4,35.58c1.41.96,3.28.82,4.53-.34,3.08-2.86,8.94-9.86,15.03-25.35,0,0-3.74,21.11-14.9,29.64-1.28.98-3.07.94-4.35-.04-6.09-4.67-24.18-19.58-34.72-39.48"/>
                </g>
                <g class="cls-42">
                  <path d="M532.92,519.17c-3.35.88-11.31-9.22-15.14-16.99,0-.02,0-.04-.01-.05,0,0,11.41,15.89,14.87,15.51,3.05-.34,7.74-15.93,5.66-26.68,1.97,8.79.7,26.62-5.37,28.22"/>
                </g>
                <g class="cls-42">
                  <path d="M535.06,676.85c-2.48,25.43-4.84,49.58-3.22,67.75-.75.04-1.5.08-2.26.11-1.62-18.38.74-42.59,3.23-68.08,3.09-31.69,6.29-64.46,2.27-89.7-5.96-37.51-16.7-64.57-21-74.38.47.29.78.43.78.43,0,0,.61-.41,1.31-1.29,4.37,10,15.15,37.24,21.14,74.89,4.06,25.52.85,58.44-2.25,90.27"/>
                </g>
                <g class="cls-44">
                  <path d="M491.57,631.7s18.34,1.92,45.35-12.11c0,0-.08,23.27-38.97,28.69-38.89,5.42-6.38-16.58-6.38-16.58"/>
                </g>
                <g class="cls-44">
                  <path d="M541.25,622.84l-2.72,13.01s3.09,4.14,18.39,5.41c15.3,1.28,12.75-17.21,12.75-17.21,0,0-10.29.84-24.63-3.47-1.68-.5-3.43.55-3.78,2.26"/>
                </g>
                <g class="cls-42">
                  <path d="M494.82,727.46s19.88-6.63,29.08-24.59c0,0-13.22,14.54-29.08,24.59"/>
                </g>
                <path class="cls-36" d="M536.81,488.97c-.19-.68,1.05-1.13,1.69-.85,4.27,1.9,14.74,3.99,21.83,5.41,8.87,1.79,20.7,3.48,25.79,8.03.35.31.53.77.53,1.24l14.54,32.59s1.81,66.18-.51,129.08c-1.19,32.4,10.35,152.72,7.67,158.57-2.68,5.85-42.39,12.99-44.62,8.52-2.23-4.46-8.48-131.62-3.57-174,4.91-42.39,11.94-67.44-14.39-139.69,0,0-6.75-20.92-8.98-28.9"/>
                <path class="cls-36" d="M392.78,818.96c.19.35,1.2.8,2.85,1.31,15.65,4.76,89.76,15.15,92.92,12.69,3.4-2.65,14.81-105.68,15.49-145.47v-.28c.02-.91.03-1.78.03-2.62.12-37.4,1.01-76.67-13.58-108.91-13.34-29.49-31.09-79.01-34.02-87.23-.21-.59-.91-.84-1.45-.49-2.92,1.89-11.43,7.26-17.79,10.02-7.52,3.27-33.96,12.53-43.45,22.92-.64.7-.86,1.68-.62,2.58l27.37,102.05h0c.03.22.39,3.6.84,9.05.53,6.31,1.18,15.41,1.57,25.63.05,1.26.1,2.53.13,3.82.56,18.18.2,39.14-3.09,54.2-.33,1.52-.69,2.97-1.08,4.36-8.83,31.23-28.17,92.63-26.13,96.37"/>
                <g class="cls-42">
                  <path d="M504.04,687.49c-.01,2.69-.07,5.75-.17,9.1-1.26,43.67-9.3,138.33-12.52,140.84-2.87,2.23-64.13-6.11-87.15-11.25-.08-1.3-.15-2.6-.2-3.9,24.73,5.15,81.78,12.83,84.54,10.68,3.17-2.47,13.28-91.94,15.21-136.38.14-3.29.24-6.35.29-9.09"/>
                </g>
                <g class="cls-42">
                  <path d="M452.64,489.46l-2.79,13.53-.7,3.38c-.25,1.14-.47,2.22-.48,3.35-.06,2.24.52,4.47,1.63,6.4.55.96,1.24,1.84,2.03,2.62.4.39.82.74,1.26,1.08l1.39,1.03,2.77,2.06.35.26c.11.08.23.16.38.3.28.25.51.58.64.94.26.73.14,1.56-.31,2.19-.22.32-.53.58-.88.75-.16.09-.37.14-.53.19l-.42.11-1.67.43-3.35.85-3.35.82c-.56.14-1.12.27-1.67.43l-.83.22c-.13.04-.29.07-.4.11-.09.04-.18.07-.25.13-.3.22-.44.57-.49.88-.06.3-.06.61.11.88l1.81,2.89c1.22,1.96,2.42,3.93,3.61,5.91,2.38,3.95,4.69,7.95,6.97,11.96,4.52,8.05,8.87,16.19,12.85,24.53,3.99,8.33,7.7,16.8,10.89,25.48,3.22,8.69,5.65,17.59,8.24,26.43,2.56,8.85,5.04,17.72,7.48,26.61,2.47,8.87,4.84,17.78,7.22,26.68l-16-52.89c-2.72-8.8-5.33-17.64-8.56-26.21-3.24-8.58-6.99-16.98-11.03-25.23-4.06-8.24-8.33-16.38-12.84-24.39-2.27-3.99-4.57-7.98-6.94-11.91-1.18-1.97-2.38-3.93-3.59-5.88l-1.85-2.97c-.42-.73-.53-1.66-.25-2.45.28-.8.97-1.39,1.69-1.67.18-.07.37-.13.56-.17l.43-.1.84-.18c.56-.12,1.12-.26,1.68-.39l3.36-.81,3.37-.78,1.68-.39.42-.1c.12-.04.2-.05.29-.1.17-.08.32-.19.43-.35.23-.3.3-.73.18-1.1-.06-.18-.17-.34-.31-.48-.06-.06-.18-.15-.29-.24l-.34-.27-2.72-2.12-1.36-1.06c-.46-.38-.92-.77-1.34-1.19-.84-.86-1.55-1.82-2.12-2.87-1.15-2.09-1.7-4.49-1.59-6.86.04-1.18.31-2.36.59-3.46l.82-3.36,3.3-13.42Z"/>
                </g>
                <path d="M563.64,554.02c-.14-5.99.15-11.98.85-17.93.1-.9.21-1.8.32-2.7.26-2.1.53-4.19.82-6.28l.43-3.09c.04-.29-.07-.55-.24-.78-.15-.24-.4-.48-.73-.55-.08-.02-.17-.01-.26-.01-.11.01-.25.04-.38.06l-.78.12c-.52.08-1.04.18-1.56.27l-3.11.56-3.12.53-1.56.27-.39.07c-.15.02-.34.05-.51.03-.35-.01-.71-.11-1.01-.3-.61-.36-1.01-1.01-1.07-1.72-.03-.35.04-.71.18-1.02.08-.17.14-.28.2-.39l.19-.34,1.55-2.75.77-1.38c.24-.45.47-.9.65-1.37.37-.94.62-1.94.72-2.95.21-2.02-.14-4.11-1.02-5.95-.43-.93-1.02-1.76-1.65-2.62l-1.85-2.56-7.37-10.27,7.75,9.99,1.93,2.5c.65.81,1.31,1.7,1.78,2.67.98,1.94,1.41,4.15,1.23,6.32-.09,1.09-.33,2.16-.71,3.19-.19.51-.42,1.01-.67,1.5l-.74,1.4-1.49,2.79-.19.35c-.06.12-.13.24-.15.31-.07.17-.1.34-.08.52.04.35.26.68.56.85.15.09.32.13.49.13.09,0,.16-.01.27-.03l.39-.08,1.55-.3,3.1-.6,3.11-.57c.52-.1,1.04-.19,1.55-.3l.77-.16.4-.08c.17-.04.35-.05.53-.06.71-.03,1.5.2,2.04.77.53.56.79,1.38.71,2.14l-.44,3.17c-.29,2.08-.55,4.17-.81,6.25-.25,2.02-.48,4.04-.7,6.07-.45,4.12-.68,8.26-.72,12.41l-.52,52.41s-.68-34.22-1.05-50.48"/>
                <path class="cls-19" d="M601.54,552.38s.3-20.89-4.56-33.1l4.56,33.1Z"/>
              </g>
              <g>
                <path class="cls-18" d="M531.89,717.72h97.9c3.4,0,6.26-2.55,6.65-5.92l14.31-123.95c.46-3.97-2.65-7.46-6.65-7.46h-97.9c-3.4,0-6.26,2.55-6.65,5.92l-14.31,123.95c-.46,3.97,2.65,7.46,6.65,7.46Z"/>
                <path class="cls-29" d="M534.54,717.58c.45.09.91.14,1.38.14h97.9c3.4,0,6.26-2.55,6.65-5.92l14.29-123.8.02-.15c.46-3.97-2.65-7.46-6.65-7.46h-97.9c-3.39,0-6.26,2.55-6.65,5.92l-14.31,123.95c-.41,3.51,1.96,6.63,5.27,7.32"/>
                <path class="cls-2" d="M534.54,717.58c.45.09.91.14,1.38.14h97.9c3.4,0,6.26-2.55,6.65-5.92l14.29-123.8.02-.15c.46-3.97-2.65-7.46-6.65-7.46h-97.9c-3.39,0-6.26,2.55-6.65,5.92l-14.31,123.95c-.41,3.51,1.96,6.63,5.27,7.32Z"/>
                <g class="cls-37">
                  <path class="cls-32" d="M579.36,649.05c0,7.88,6.39,14.27,14.27,14.27s14.27-6.39,14.27-14.27-6.39-14.27-14.27-14.27-14.27,6.39-14.27,14.27"/>
                </g>
                <g class="cls-43">
                  <path d="M534.54,717.58c.45.09.91.14,1.38.14h97.9c3.4,0,6.26-2.55,6.65-5.92l14.29-123.8c-.45-.09-.91-.14-1.38-.14h-97.9c-3.4,0-6.26,2.55-6.65,5.92l-14.29,123.8Z"/>
                </g>
                <g class="cls-41">
                  <path d="M419.99,718.23c-.33,1.52-.69,2.97-1.08,4.36l68.19-9.1c.87-.11,1.49-.9,1.41-1.77l-5.59-57.49c-.09-.91-.91-1.56-1.83-1.45l-58.14,7.43c.05,1.26.1,2.53.13,3.81l54.37-6.94c.9-.11,1.72.54,1.82,1.43l5.55,49.47c.1.87-.53,1.67-1.4,1.79l-63.43,8.47Z"/>
                </g>
                <path class="cls-34" d="M439.06,706.78s7.95-1.94,25.62-7.44c17.68-5.48,23.19-6.54,27.75-4.04,4.56,2.5,10.98.89,19.12-1.45,8.14-2.33,14.4-8.4,17.63-10.14,3.23-1.72,8.16,1.61,10.62,10,.54,1.84,1.12,3.55,1.73,5.08.13.33.26.64.4.95.08.18.15.35.23.52.13.28.26.56.39.83.65,1.32,1.33,2.42,2.01,3.25.08.11.17.2.25.29.09.1.17.18.26.27.08.08.17.16.25.23.08.07.17.14.25.21.08.07.17.13.25.18.12.08.24.16.36.21.02.02.03.03.05.03.11.07.24.11.35.16.18.06.35.1.53.12.18.02.36.02.53,0,.1,0,.18-.03.27-.05t.02,0c.28-.07.55-.2.83-.4,3.18-2.21.48-8.83.4-12.1-.06-2.34-1.64-8.56-2.54-11.95-.37-1.36-.62-2.27-.62-2.27,2.98,1.85,5.92.55,7.54.03.51-.16,1.05.15,1.16.68,1.76,8.65,4.92,17.39,9.57,18.56.38.1.74.16,1.06.19,3.91.35,4.61-3.81,2.74-10.94-2.02-7.75-1.48-10.3-2.97-16.45,0-.02,0-.04-.02-.06-.35-1.4-1.07-2.62-1.97-3.68-2.13-2.54-5.27-4.15-6.94-4.87-.69-.31-1.13-.46-1.13-.46.84-1.65,4.86-1.06,6.59-.72.36.07.67.28.87.56,0,0,0,0,0,.02.03.05.06.11.09.16.03.06.06.12.09.18,4.57,12.74,13.31,20.12,17.4,17.79.4-.22.76-.54,1.05-.95,1.67-2.28-2.01-9.27-4.2-13.02-.8-1.37-1.41-2.29-1.48-2.41,4.48,1.56,7.6,2.96,10.24-.11.34-.4.68-.89,1.01-1.45,2.86-4.88-11.79-13.46-20.18-16.79-8.4-3.32-25.14-3.71-31.58-6.72-6.44-3.02-8.96-3.09-15.61,2.61-6.65,5.69-19.45,11.73-32.85,17.52-13.41,5.79-41.72,5.45-41.72,5.45l-.2,1.53-5.49,40.87Z"/>
                <g class="cls-42">
                  <path d="M438,708.3s7.94-1.94,25.62-7.43c17.68-5.49,23.18-6.55,27.74-4.04,4.56,2.5,11.1,1.46,19.23-.87,8.14-2.33,14.54-7.22,17.77-8.95,3.23-1.73,7.9-.16,10.36,8.22,2.47,8.39,5.99,12.96,9.17,10.75,0,0,0,0,.02,0-2.93.82-5.87-4.61-8.12-12.26-2.46-8.39-7.39-11.72-10.62-9.99-3.23,1.73-9.49,7.81-17.63,10.14-8.14,2.34-14.56,3.95-19.12,1.45-4.56-2.5-10.07-1.44-27.75,4.04-17.67,5.49-25.62,7.44-25.62,7.44l5.49-40.87h-.86l-5.69,42.39Z"/>
                </g>
                <path class="cls-25" d="M477.19,697.17l11.27.58-4.85-39.54-13.99,3.17,7.57,35.8Z"/>
                <g class="cls-42">
                  <path d="M545.97,679.27s.25.91.62,2.27c2.36.65,4.55-.29,5.85-.7.51-.17,1.05.15,1.16.68,1.76,8.65,4.23,15.83,8.88,17.01,1.11.28,2.05.35,2.82.21-.33-.03-.69-.1-1.06-.19-4.65-1.17-7.81-9.91-9.57-18.56-.11-.53-.65-.84-1.16-.68-1.62.52-4.56,1.82-7.54-.03"/>
                </g>
                <g class="cls-42">
                  <path d="M555.03,662.27s.44.15,1.13.46c1.5-.15,3.37.15,4.4.35.35.07.66.27.86.56t0,.02s.07.1.1.16c.03.05.06.11.08.18.46,1.27.95,2.46,1.49,3.6.9,1.06,1.62,2.29,1.97,3.68,5.13,8.44,12.03,12.01,15.01,8.98-4.09,2.33-12.83-5.06-17.4-17.79-.03-.06-.05-.12-.09-.18-.03-.05-.05-.1-.09-.16,0,0,0,0,0-.02-.2-.28-.51-.49-.87-.56-1.73-.34-5.76-.93-6.59.72"/>
                </g>
                <path class="cls-5" d="M563.1,667.59c.62,1.31,1.27,2.54,1.97,3.68-.35-1.4-1.07-2.62-1.97-3.68Z"/>
                <g class="cls-42">
                  <path d="M575.45,663.88c.07.11.68,1.04,1.48,2.41,3.7,1.23,6.37,1.57,8.72-2.44.02-.03.03-.05.04-.08-2.64,3.08-5.76,1.68-10.24.11"/>
                </g>
                <path class="cls-27" d="M546.58,646.71c3.08.19,6.16.45,9.22.81,1.53.19,3.06.41,4.57.67,1.51.27,3.02.6,4.45,1.1.71.26,1.42.56,1.95,1.01l.19.17c.06.06.13.14.19.21l.38.42c.24.3.48.59.71.9.91,1.23,1.73,2.53,2.53,3.85,1.62,2.63,3.04,5.38,4.67,8.01-.73-1.36-1.38-2.77-2.09-4.15-.7-1.38-1.42-2.76-2.17-4.11-.77-1.35-1.56-2.69-2.47-3.96-.23-.32-.47-.63-.71-.94l-.39-.45c-.07-.08-.13-.15-.2-.22l-.24-.22c-.66-.54-1.4-.85-2.14-1.13-1.49-.53-3.02-.86-4.55-1.15-1.53-.29-3.07-.48-4.61-.65-3.09-.33-6.18-.53-9.28-.59-.11,0-.2.08-.2.19,0,.11.08.19.18.2h0Z"/>
                <path class="cls-27" d="M545.24,658.99c2.12.74,9.79,3.27,9.79,3.27.84-1.65,4.87-1.06,6.6-.72.36.07.66.28.87.56-2.68-4.29-19.32-3.84-17.25-3.12"/>
                <path class="cls-27" d="M540.08,670.36s5.13,6.05,5.9,8.91c0,0-.56-3.95-5.9-8.91"/>
                <path class="cls-27" d="M558.86,674.56s-2.14,4.42-5.35,4.74c0,0,2.53-.42,5.35-4.74"/>
                <path class="cls-27" d="M561.59,661.17s2.19-1.93,2.51-4.22c0,0,.16,2.54-2.51,4.22"/>
                <path class="cls-27" d="M545.35,682.35s-1.37,2.83-5.03,2.39c0,0,2.95.02,5.03-2.39"/>
                <path class="cls-27" d="M531.98,643.57s-3.79-.77-7.23,2.75c0,0,2.58-2.63,7.23-2.75"/>
                <path class="cls-27" d="M534.42,652.9s-3.79-.77-7.23,2.75c0,0,2.58-2.63,7.23-2.75"/>
                <path class="cls-27" d="M533.1,663.98s-3.79-.77-7.23,2.75c0,0,2.58-2.63,7.23-2.75"/>
                <g class="cls-38">
                  <path class="cls-32" d="M583.26,655.92c.21-.19,4.05,3.41,3.31,5.54-.74,2.13-1.56,2.26-3.58.59-2.01-1.67-3.13-3.12.27-6.13"/>
                </g>
                <g class="cls-38">
                  <path class="cls-32" d="M578.64,673.49c.49-.36,1.18-.18,1.43.37.64,1.4,1.55,3.86.63,5.02-1.33,1.68-2.82.89-3.38-.42-.56-1.3-1.33-2.86-.85-3.3.29-.27,1.38-1.08,2.18-1.67"/>
                </g>
                <g class="cls-38">
                  <path class="cls-32" d="M566.41,691.52c.53-.29,1.19-.02,1.37.56.44,1.48,1,4.04-.07,5.06-1.55,1.48-2.91.49-3.29-.88-.38-1.37-.93-3.02-.39-3.39.33-.23,1.51-.88,2.39-1.36"/>
                </g>
                <g class="cls-38">
                  <path class="cls-32" d="M548.19,699.66c.44-.24.98-.02,1.13.46.37,1.22.83,3.33-.06,4.17-1.28,1.22-2.4.41-2.72-.72-.31-1.13-.77-2.49-.32-2.79.27-.19,1.25-.73,1.97-1.12"/>
                </g>
                <path class="cls-27" d="M493.3,695.41s-6.08-3.95-5.53-7.44c0,0,1.5,4.27,5.53,7.44"/>
                <path class="cls-36" d="M369.42,711.68c7.28,6.43,17.51,10.14,31.42,9.11l82.57-11.02c.87-.11,1.5-.91,1.4-1.78l-5.55-49.47c-.1-.9-.92-1.55-1.82-1.43l-65.41,8.36c-3.64.36-6.34-3.31-4.89-6.67l13.38-33.23s2.58-83.67-10.72-104.18c-3.1-4.81-7.09-6.15-12.18-2.14-16.98,13.39-32.87,86.32-42.24,138-3.27,18.03-.53,41.65,14.03,54.46"/>
                <path d="M420.52,625.53s-5.19-51.57-19.6-82.39c0,0,11.38,35.32,19.6,82.39"/>
              </g>
              <g>
                <path class="cls-35" d="M524.4,536.65h0c.56.42,33.39,13.9,45.14.34,13.77-15.89,13.89-29.35,9.95-38.77-15.2-8.77-46.92-33.21-45.08-16.16,2.14,19.96-8.79,19.61,6.24,35.26,15.03,15.65-16.25,19.34-16.25,19.34"/>
                <g class="cls-39">
                  <path d="M574.62,518.55s6.79-13.68-5.72-29.09c0,0,9.12,12.41,5.72,29.09"/>
                </g>
                <g class="cls-39">
                  <path d="M540.07,537.37s23.08-5.02,14.54-30.96c0,0,8.67,21.66-14.54,30.96"/>
                </g>
                <g class="cls-39">
                  <path d="M554.86,503.79s-9.19-15.55-9.22-32.51c0,0,1.14,15.19,9.22,32.51"/>
                </g>
              </g>
            </g>
          </g>
        </g>
      </g>
      <rect class="cls-31" y="697.5" width="775.12" height="5.4"/>
    </g>
  </g>
</svg>